<svg width="572" height="606" viewBox="0 0 572 606" fill="none" xmlns="http://www.w3.org/2000/svg">
<path fill-rule="evenodd" clip-rule="evenodd" d="M58 167L59 163L60 158L104 0L572 1L55 422L291 137H114L104 138C83 139 64 152 58 167Z" fill="#808285"/>
<path fill-rule="evenodd" clip-rule="evenodd" d="M547 289C547 287 532 378 507 472L18 475L546 48L309 335H487L497 334C518 333 540 304 547 289Z" fill="#ED1C24"/>
<path fill-rule="evenodd" clip-rule="evenodd" d="M83 606H0L57 528H19L22 506H101L44 584H86L83 606ZM99 606L112 506H169L166 528H134L132 545H162L160 567H129L127 584H159L156 606H99ZM173 606L186 506H211L240 558L242 564L246 575C246.059 568.655 246.393 562.316 247 556L253 506H278L265 606H241L212 555L209 548L205 537C204.949 543.678 204.615 550.35 204 557L198 606H173ZM286 606L299 506H325L312 606H286ZM346 606L356 530H335L338 506H406L403 530H382L372 606H346ZM405 606L418 506H444L439 545H473L478 506H504L491 606H465L470 565H436L431 606H405Z" fill="#808285"/>
</svg>
